<svg width="22" height="22" viewBox="0 0 22 22" fill="none" xmlns="http://www.w3.org/2000/svg">
<path d="M15.5 1.97259C15.7507 1.72188 16.0483 1.52301 16.3759 1.38733C16.7035 1.25165 17.0545 1.18182 17.4091 1.18182C17.7636 1.18182 18.1147 1.25165 18.4423 1.38733C18.7698 1.52301 19.0675 1.72188 19.3182 1.97259C19.5689 2.22329 19.7678 2.52093 19.9034 2.84849C20.0391 3.17605 20.109 3.52713 20.109 3.88168C20.109 4.23623 20.0391 4.58731 19.9034 4.91487C19.7678 5.24244 19.5689 5.54007 19.3182 5.79077L6.43182 18.6771L1.18182 20.109L2.61364 14.859L15.5 1.97259Z" stroke="white" stroke-width="2" stroke-linecap="round" stroke-linejoin="round"/>
</svg>
