<svg width="95" height="95" viewBox="0 0 95 95" fill="none" xmlns="http://www.w3.org/2000/svg">
<path d="M74.2188 89.0625H20.7812C16.8444 89.0625 13.0689 87.4986 10.2851 84.7149C7.50139 81.9311 5.9375 78.1556 5.9375 74.2188V71.25C5.9375 64.1637 8.7525 57.3677 13.7632 52.357C18.774 47.3463 25.57 44.5313 32.6562 44.5312H62.3438C69.43 44.5313 76.226 47.3463 81.2368 52.357C86.2475 57.3677 89.0625 64.1637 89.0625 71.25V74.2188C89.0625 78.1556 87.4986 81.9311 84.7149 84.7149C81.9311 87.4986 78.1556 89.0625 74.2188 89.0625ZM32.6562 50.4688C27.1447 50.4688 21.8589 52.6582 17.9617 56.5554C14.0644 60.4527 11.875 65.7385 11.875 71.25V74.2188C11.875 76.5808 12.8133 78.8462 14.4836 80.5164C16.1538 82.1867 18.4192 83.125 20.7812 83.125H74.2188C76.5808 83.125 78.8462 82.1867 80.5164 80.5164C82.1867 78.8462 83.125 76.5808 83.125 74.2188V71.25C83.125 65.7385 80.9355 60.4527 77.0383 56.5554C73.1411 52.6582 67.8553 50.4688 62.3438 50.4688H32.6562Z" fill="white"/>
<path d="M65.3125 23.75V20.7812C65.3125 16.8444 63.7486 13.0689 60.9649 10.2851C58.1811 7.50139 54.4056 5.9375 50.4688 5.9375H44.5312C40.5944 5.9375 36.8189 7.50139 34.0351 10.2851C31.2514 13.0689 29.6875 16.8444 29.6875 20.7812V23.75C29.6875 27.6868 31.2514 31.4624 34.0351 34.2461C36.8189 37.0299 40.5944 38.5938 44.5312 38.5938H50.4688C54.4056 38.5938 58.1811 37.0299 60.9649 34.2461C63.7486 31.4624 65.3125 27.6868 65.3125 23.75ZM35.625 23.75V20.7812C35.625 18.4192 36.5633 16.1538 38.2336 14.4836C39.9038 12.8133 42.1692 11.875 44.5312 11.875H50.4688C52.8308 11.875 55.0962 12.8133 56.7664 14.4836C58.4367 16.1538 59.375 18.4192 59.375 20.7812V23.75C59.375 26.1121 58.4367 28.3774 56.7664 30.0477C55.0962 31.7179 52.8308 32.6562 50.4688 32.6562H44.5312C42.1692 32.6562 39.9038 31.7179 38.2336 30.0477C36.5633 28.3774 35.625 26.1121 35.625 23.75ZM71.25 71.25V77.1875H47.5V71.25H71.25Z" fill="#F65042"/>
</svg>
